<svg height="384pt" viewBox="0 0 384 384" width="384pt" xmlns="http://www.w3.org/2000/svg"><path d="m336 192c0 79.527344-64.472656 144-144 144s-144-64.472656-144-144 64.472656-144 144-144 144 64.472656 144 144zm0 0" fill="#1f1f1f"/><path d="m232 192c0 22.089844-17.910156 40-40 40s-40-17.910156-40-40 17.910156-40 40-40 40 17.910156 40 40zm0 0" fill="#1f1f1f"/><path d="m368 176h-16.808594c-7.535156-75.472656-67.71875-135.65625-143.191406-143.191406v-16.808594c0-8.832031-7.167969-16-16-16s-16 7.167969-16 16v16.808594c-75.472656 7.535156-135.65625 67.71875-143.191406 143.191406h-16.808594c-8.832031 0-16 7.167969-16 16s7.167969 16 16 16h16.808594c7.535156 75.472656 67.71875 135.664062 143.191406 143.191406v16.808594c0 8.832031 7.167969 16 16 16s16-7.167969 16-16v-16.808594c75.472656-7.527344 135.65625-67.71875 143.191406-143.191406h16.808594c8.832031 0 16-7.167969 16-16s-7.167969-16-16-16zm-160 142.886719v-86.886719c0-8.832031-7.167969-16-16-16s-16 7.167969-16 16v86.886719c-57.785156-7.253907-103.632812-53.101563-110.886719-110.886719h86.886719c8.832031 0 16-7.167969 16-16s-7.167969-16-16-16h-86.886719c7.253907-57.785156 53.101563-103.632812 110.886719-110.886719v86.886719c0 8.832031 7.167969 16 16 16s16-7.167969 16-16v-86.886719c57.785156 7.253907 103.632812 53.101563 110.886719 110.886719h-86.886719c-8.832031 0-16 7.167969-16 16s7.167969 16 16 16h86.886719c-7.253907 57.785156-53.101563 103.632812-110.886719 110.886719zm0 0" fill="white"/></svg>